<svg xmlns="http://www.w3.org/2000/svg" xmlns:xlink="http://www.w3.org/1999/xlink" width="990" height="567.62"><rect width="990" height="567.62" rx="5" ry="5" class="a"/><svg y="0%" x="0%"><circle cx="20" cy="20" r="6" fill="#ff5f58"/><circle cx="40" cy="20" r="6" fill="#ffbd2e"/><circle cx="60" cy="20" r="6" fill="#18c132"/></svg><svg height="477.62" viewBox="0 0 92 47.762" width="920" x="30" xmlns="http://www.w3.org/2000/svg" xmlns:xlink="http://www.w3.org/1999/xlink" y="65"><style>@keyframes i{0%{transform:translateX(-92px)}8.4%{transform:translateX(-184px)}9.1%{transform:translateX(-276px)}9.7%{transform:translateX(-368px)}10.3%{transform:translateX(-460px)}11%{transform:translateX(-552px)}11.6%{transform:translateX(-644px)}12.2%{transform:translateX(-736px)}12.9%{transform:translateX(-828px)}13.5%{transform:translateX(-920px)}14.1%{transform:translateX(-1012px)}14.8%{transform:translateX(-1104px)}15.4%{transform:translateX(-1196px)}16%{transform:translateX(-1288px)}16.7%{transform:translateX(-1380px)}17.3%{transform:translateX(-1472px)}17.9%{transform:translateX(-1564px)}18.6%{transform:translateX(-1656px)}19.2%{transform:translateX(-1748px)}19.8%{transform:translateX(-1840px)}20.5%{transform:translateX(-1932px)}21.1%{transform:translateX(-2024px)}21.7%{transform:translateX(-2116px)}22.4%{transform:translateX(-2208px)}28.7%{transform:translateX(-2300px)}44.2%{transform:translateX(-2392px)}45.9%{transform:translateX(-2484px)}47.5%{transform:translateX(-2576px)}49.2%{transform:translateX(-2668px)}50.9%{transform:translateX(-2760px)}52.6%{transform:translateX(-2852px)}61.3%{transform:translateX(-2944px)}69.8%{transform:translateX(-3036px)}70.5%{transform:translateX(-3128px)}71.2%{transform:translateX(-3220px)}71.9%{transform:translateX(-3312px)}72.6%{transform:translateX(-3404px)}73.3%{transform:translateX(-3496px)}74%{transform:translateX(-3588px)}74.7%{transform:translateX(-3680px)}75.4%{transform:translateX(-3772px)}76.1%{transform:translateX(-3864px)}76.8%{transform:translateX(-3956px)}77.5%{transform:translateX(-4048px)}78.2%{transform:translateX(-4140px)}78.9%{transform:translateX(-4232px)}79.6%{transform:translateX(-4324px)}80.3%{transform:translateX(-4416px)}81%{transform:translateX(-4508px)}81.7%{transform:translateX(-4600px)}82.4%{transform:translateX(-4692px)}87.3%{transform:translateX(-4784px)}93%{transform:translateX(-4876px)}to{transform:translateX(-4968px)}}.a{fill:#fff}.f{fill:#000;white-space:pre}</style><g font-family="Monaco,Consolas,Menlo,'Bitstream Vera Sans Mono','Powerline Symbols',monospace" font-size="1.67"><defs><symbol id="1"><text y="1.67" class="f">$</text></symbol><symbol id="2"><text y="1.67" class="f">$</text><text x="2.004" y="1.67" class="f">clipsheet</text></symbol><symbol id="3"><text y="1.67" class="f">$</text><text x="2.004" y="1.67" class="f">clipsheet</text><text x="12.024" y="1.67" class="f">recording.mp4</text></symbol><symbol id="4"><text y="1.67" class="f">Source:</text><text x="11.022" y="1.67" class="f">recording.mp4</text><text x="26.052" y="1.67" class="f">(20.6s)</text></symbol><symbol id="5"><text y="1.67" class="f">Sampled:</text><text x="11.022" y="1.67" class="f">15</text><text x="14.028" y="1.67" class="f">frames</text></symbol><symbol id="6"><text y="1.67" class="f">Selected:</text><text x="11.022" y="1.67" class="f">15</text><text x="14.028" y="1.67" class="f">keyframes</text></symbol><symbol id="7"><text y="1.67" class="f">Output:</text><text x="11.022" y="1.67" class="f">2</text><text x="13.026" y="1.67" class="f">grid(s)</text><text x="21.042" y="1.67" class="f">in</text><text x="24.048" y="1.67" class="f">recording_clips</text></symbol><symbol id="8"><text x="2.004" y="1.67" class="f">grid_01.jpg</text><text x="15.03" y="1.67" class="f">(9</text><text x="18.036" y="1.67" class="f">cells,</text><text x="25.05" y="1.67" class="f">0.0s..17.2s)</text></symbol><symbol id="9"><text x="2.004" y="1.67" class="f">grid_02.jpg</text><text x="15.03" y="1.67" class="f">(6</text><text x="18.036" y="1.67" class="f">cells,</text><text x="25.05" y="1.67" class="f">18.5s..20.0s)</text></symbol><symbol id="10"><text y="1.67" class="f">$</text><text x="2.004" y="1.67" class="f">ls</text></symbol><symbol id="11"><text y="1.67" class="f">$</text><text x="2.004" y="1.67" class="f">ls</text><text x="5.01" y="1.67" class="f">recording_clips/</text></symbol><symbol id="12"><text y="1.67" class="f">grid_01.jpg</text><text x="13.026" y="1.67" class="f">grid_02.jpg</text><text x="26.052" y="1.67" class="f">manifest.json</text></symbol><symbol id="a"><path fill="transparent" d="M0 0h92v23H0z"/></symbol><symbol id="b"><path fill="#929292" d="M0 0h1.102v2.171H0z"/></symbol></defs><path class="a" d="M0 0h92v47.762H0z"/><g style="animation-duration:7.11s;animation-iteration-count:infinite;animation-name:i;animation-timing-function:steps(1,end)"><svg width="5060"><svg><use xlink:href="#a"/><use xlink:href="#b" x="-.004"/></svg><svg x="92"><use xlink:href="#a"/><use xlink:href="#b" x="1.996"/><use xlink:href="#1"/></svg><svg x="184"><use xlink:href="#a"/><use xlink:href="#b" x="2.996"/><text y="1.67" class="f">$</text><text x="2.004" y="1.67" class="f">c</text></svg><svg x="276"><use xlink:href="#a"/><use xlink:href="#b" x="3.996"/><text y="1.67" class="f">$</text><text x="2.004" y="1.67" class="f">cl</text></svg><svg x="368"><use xlink:href="#a"/><use xlink:href="#b" x="4.996"/><text y="1.67" class="f">$</text><text x="2.004" y="1.67" class="f">cli</text></svg><svg x="460"><use xlink:href="#a"/><use xlink:href="#b" x="5.996"/><text y="1.67" class="f">$</text><text x="2.004" y="1.67" class="f">clip</text></svg><svg x="552"><use xlink:href="#a"/><use xlink:href="#b" x="6.996"/><text y="1.67" class="f">$</text><text x="2.004" y="1.67" class="f">clips</text></svg><svg x="644"><use xlink:href="#a"/><use xlink:href="#b" x="7.996"/><text y="1.67" class="f">$</text><text x="2.004" y="1.67" class="f">clipsh</text></svg><svg x="736"><use xlink:href="#a"/><use xlink:href="#b" x="8.996"/><text y="1.67" class="f">$</text><text x="2.004" y="1.67" class="f">clipshe</text></svg><svg x="828"><use xlink:href="#a"/><use xlink:href="#b" x="9.996"/><text y="1.67" class="f">$</text><text x="2.004" y="1.67" class="f">clipshee</text></svg><svg x="920"><use xlink:href="#a"/><use xlink:href="#b" x="10.996"/><use xlink:href="#2"/></svg><svg x="1012"><use xlink:href="#a"/><use xlink:href="#b" x="11.996"/><use xlink:href="#2"/></svg><svg x="1104"><use xlink:href="#a"/><use xlink:href="#b" x="12.996"/><text y="1.67" class="f">$</text><text x="2.004" y="1.67" class="f">clipsheet</text><text x="12.024" y="1.67" class="f">r</text></svg><svg x="1196"><use xlink:href="#a"/><use xlink:href="#b" x="13.996"/><text y="1.67" class="f">$</text><text x="2.004" y="1.67" class="f">clipsheet</text><text x="12.024" y="1.67" class="f">re</text></svg><svg x="1288"><use xlink:href="#a"/><use xlink:href="#b" x="14.996"/><text y="1.67" class="f">$</text><text x="2.004" y="1.67" class="f">clipsheet</text><text x="12.024" y="1.67" class="f">rec</text></svg><svg x="1380"><use xlink:href="#a"/><use xlink:href="#b" x="15.996"/><text y="1.67" class="f">$</text><text x="2.004" y="1.67" class="f">clipsheet</text><text x="12.024" y="1.67" class="f">reco</text></svg><svg x="1472"><use xlink:href="#a"/><use xlink:href="#b" x="16.996"/><text y="1.67" class="f">$</text><text x="2.004" y="1.67" class="f">clipsheet</text><text x="12.024" y="1.67" class="f">recor</text></svg><svg x="1564"><use xlink:href="#a"/><use xlink:href="#b" x="17.996"/><text y="1.67" class="f">$</text><text x="2.004" y="1.67" class="f">clipsheet</text><text x="12.024" y="1.67" class="f">record</text></svg><svg x="1656"><use xlink:href="#a"/><use xlink:href="#b" x="18.996"/><text y="1.67" class="f">$</text><text x="2.004" y="1.67" class="f">clipsheet</text><text x="12.024" y="1.67" class="f">recordi</text></svg><svg x="1748"><use xlink:href="#a"/><use xlink:href="#b" x="19.996"/><text y="1.67" class="f">$</text><text x="2.004" y="1.67" class="f">clipsheet</text><text x="12.024" y="1.67" class="f">recordin</text></svg><svg x="1840"><use xlink:href="#a"/><use xlink:href="#b" x="20.996"/><text y="1.67" class="f">$</text><text x="2.004" y="1.67" class="f">clipsheet</text><text x="12.024" y="1.67" class="f">recording</text></svg><svg x="1932"><use xlink:href="#a"/><use xlink:href="#b" x="21.996"/><text y="1.67" class="f">$</text><text x="2.004" y="1.67" class="f">clipsheet</text><text x="12.024" y="1.67" class="f">recording.</text></svg><svg x="2024"><use xlink:href="#a"/><use xlink:href="#b" x="22.996"/><text y="1.67" class="f">$</text><text x="2.004" y="1.67" class="f">clipsheet</text><text x="12.024" y="1.67" class="f">recording.m</text></svg><svg x="2116"><use xlink:href="#a"/><use xlink:href="#b" x="23.996"/><text y="1.67" class="f">$</text><text x="2.004" y="1.67" class="f">clipsheet</text><text x="12.024" y="1.67" class="f">recording.mp</text></svg><svg x="2208"><use xlink:href="#a"/><use xlink:href="#b" x="24.996"/><use xlink:href="#3"/></svg><svg x="2300"><use xlink:href="#a"/><use xlink:href="#b" x="-.004" y="2.146"/><use xlink:href="#3"/></svg><svg x="2392"><use xlink:href="#a"/><use xlink:href="#b" x="-.004" y="4.317"/><use xlink:href="#3"/><use xlink:href="#4" y="2.171"/></svg><svg x="2484"><use xlink:href="#a"/><use xlink:href="#b" x="-.004" y="6.488"/><use xlink:href="#3"/><use xlink:href="#4" y="2.171"/><use xlink:href="#5" y="4.342"/></svg><svg x="2576"><use xlink:href="#a"/><use xlink:href="#b" x="-.004" y="8.659"/><use xlink:href="#3"/><use xlink:href="#4" y="2.171"/><use xlink:href="#5" y="4.342"/><use xlink:href="#6" y="6.513"/></svg><svg x="2668"><use xlink:href="#a"/><use xlink:href="#b" x="-.004" y="10.83"/><use xlink:href="#3"/><use xlink:href="#4" y="2.171"/><use xlink:href="#5" y="4.342"/><use xlink:href="#6" y="6.513"/><use xlink:href="#7" y="8.684"/></svg><svg x="2760"><use xlink:href="#a"/><use xlink:href="#b" x="-.004" y="13.001"/><use xlink:href="#3"/><use xlink:href="#4" y="2.171"/><use xlink:href="#5" y="4.342"/><use xlink:href="#6" y="6.513"/><use xlink:href="#7" y="8.684"/><use xlink:href="#8" y="10.855"/></svg><svg x="2852"><use xlink:href="#a"/><use xlink:href="#b" x="-.004" y="15.172"/><use xlink:href="#3"/><use xlink:href="#4" y="2.171"/><use xlink:href="#5" y="4.342"/><use xlink:href="#6" y="6.513"/><use xlink:href="#7" y="8.684"/><use xlink:href="#8" y="10.855"/><use xlink:href="#9" y="13.026"/></svg><svg x="2944"><use xlink:href="#a"/><use xlink:href="#b" x="1.996" y="15.172"/><use xlink:href="#3"/><use xlink:href="#4" y="2.171"/><use xlink:href="#5" y="4.342"/><use xlink:href="#6" y="6.513"/><use xlink:href="#7" y="8.684"/><use xlink:href="#8" y="10.855"/><use xlink:href="#9" y="13.026"/><use xlink:href="#1" y="15.197"/></svg><svg x="3036"><use xlink:href="#a"/><use xlink:href="#b" x="2.996" y="15.172"/><use xlink:href="#3"/><use xlink:href="#4" y="2.171"/><use xlink:href="#5" y="4.342"/><use xlink:href="#6" y="6.513"/><use xlink:href="#7" y="8.684"/><use xlink:href="#8" y="10.855"/><use xlink:href="#9" y="13.026"/><text y="16.867" class="f">$</text><text x="2.004" y="16.867" class="f">l</text></svg><svg x="3128"><use xlink:href="#a"/><use xlink:href="#b" x="3.996" y="15.172"/><use xlink:href="#3"/><use xlink:href="#4" y="2.171"/><use xlink:href="#5" y="4.342"/><use xlink:href="#6" y="6.513"/><use xlink:href="#7" y="8.684"/><use xlink:href="#8" y="10.855"/><use xlink:href="#9" y="13.026"/><use xlink:href="#10" y="15.197"/></svg><svg x="3220"><use xlink:href="#a"/><use xlink:href="#b" x="4.996" y="15.172"/><use xlink:href="#3"/><use xlink:href="#4" y="2.171"/><use xlink:href="#5" y="4.342"/><use xlink:href="#6" y="6.513"/><use xlink:href="#7" y="8.684"/><use xlink:href="#8" y="10.855"/><use xlink:href="#9" y="13.026"/><use xlink:href="#10" y="15.197"/></svg><svg x="3312"><use xlink:href="#a"/><use xlink:href="#b" x="5.996" y="15.172"/><use xlink:href="#3"/><use xlink:href="#4" y="2.171"/><use xlink:href="#5" y="4.342"/><use xlink:href="#6" y="6.513"/><use xlink:href="#7" y="8.684"/><use xlink:href="#8" y="10.855"/><use xlink:href="#9" y="13.026"/><text y="16.867" class="f">$</text><text x="2.004" y="16.867" class="f">ls</text><text x="5.01" y="16.867" class="f">r</text></svg><svg x="3404"><use xlink:href="#a"/><use xlink:href="#b" x="6.996" y="15.172"/><use xlink:href="#3"/><use xlink:href="#4" y="2.171"/><use xlink:href="#5" y="4.342"/><use xlink:href="#6" y="6.513"/><use xlink:href="#7" y="8.684"/><use xlink:href="#8" y="10.855"/><use xlink:href="#9" y="13.026"/><text y="16.867" class="f">$</text><text x="2.004" y="16.867" class="f">ls</text><text x="5.01" y="16.867" class="f">re</text></svg><svg x="3496"><use xlink:href="#a"/><use xlink:href="#b" x="7.996" y="15.172"/><use xlink:href="#3"/><use xlink:href="#4" y="2.171"/><use xlink:href="#5" y="4.342"/><use xlink:href="#6" y="6.513"/><use xlink:href="#7" y="8.684"/><use xlink:href="#8" y="10.855"/><use xlink:href="#9" y="13.026"/><text y="16.867" class="f">$</text><text x="2.004" y="16.867" class="f">ls</text><text x="5.01" y="16.867" class="f">rec</text></svg><svg x="3588"><use xlink:href="#a"/><use xlink:href="#b" x="8.996" y="15.172"/><use xlink:href="#3"/><use xlink:href="#4" y="2.171"/><use xlink:href="#5" y="4.342"/><use xlink:href="#6" y="6.513"/><use xlink:href="#7" y="8.684"/><use xlink:href="#8" y="10.855"/><use xlink:href="#9" y="13.026"/><text y="16.867" class="f">$</text><text x="2.004" y="16.867" class="f">ls</text><text x="5.01" y="16.867" class="f">reco</text></svg><svg x="3680"><use xlink:href="#a"/><use xlink:href="#b" x="9.996" y="15.172"/><use xlink:href="#3"/><use xlink:href="#4" y="2.171"/><use xlink:href="#5" y="4.342"/><use xlink:href="#6" y="6.513"/><use xlink:href="#7" y="8.684"/><use xlink:href="#8" y="10.855"/><use xlink:href="#9" y="13.026"/><text y="16.867" class="f">$</text><text x="2.004" y="16.867" class="f">ls</text><text x="5.01" y="16.867" class="f">recor</text></svg><svg x="3772"><use xlink:href="#a"/><use xlink:href="#b" x="10.996" y="15.172"/><use xlink:href="#3"/><use xlink:href="#4" y="2.171"/><use xlink:href="#5" y="4.342"/><use xlink:href="#6" y="6.513"/><use xlink:href="#7" y="8.684"/><use xlink:href="#8" y="10.855"/><use xlink:href="#9" y="13.026"/><text y="16.867" class="f">$</text><text x="2.004" y="16.867" class="f">ls</text><text x="5.01" y="16.867" class="f">record</text></svg><svg x="3864"><use xlink:href="#a"/><use xlink:href="#b" x="11.996" y="15.172"/><use xlink:href="#3"/><use xlink:href="#4" y="2.171"/><use xlink:href="#5" y="4.342"/><use xlink:href="#6" y="6.513"/><use xlink:href="#7" y="8.684"/><use xlink:href="#8" y="10.855"/><use xlink:href="#9" y="13.026"/><text y="16.867" class="f">$</text><text x="2.004" y="16.867" class="f">ls</text><text x="5.01" y="16.867" class="f">recordi</text></svg><svg x="3956"><use xlink:href="#a"/><use xlink:href="#b" x="12.996" y="15.172"/><use xlink:href="#3"/><use xlink:href="#4" y="2.171"/><use xlink:href="#5" y="4.342"/><use xlink:href="#6" y="6.513"/><use xlink:href="#7" y="8.684"/><use xlink:href="#8" y="10.855"/><use xlink:href="#9" y="13.026"/><text y="16.867" class="f">$</text><text x="2.004" y="16.867" class="f">ls</text><text x="5.01" y="16.867" class="f">recordin</text></svg><svg x="4048"><use xlink:href="#a"/><use xlink:href="#b" x="13.996" y="15.172"/><use xlink:href="#3"/><use xlink:href="#4" y="2.171"/><use xlink:href="#5" y="4.342"/><use xlink:href="#6" y="6.513"/><use xlink:href="#7" y="8.684"/><use xlink:href="#8" y="10.855"/><use xlink:href="#9" y="13.026"/><text y="16.867" class="f">$</text><text x="2.004" y="16.867" class="f">ls</text><text x="5.01" y="16.867" class="f">recording</text></svg><svg x="4140"><use xlink:href="#a"/><use xlink:href="#b" x="14.996" y="15.172"/><use xlink:href="#3"/><use xlink:href="#4" y="2.171"/><use xlink:href="#5" y="4.342"/><use xlink:href="#6" y="6.513"/><use xlink:href="#7" y="8.684"/><use xlink:href="#8" y="10.855"/><use xlink:href="#9" y="13.026"/><text y="16.867" class="f">$</text><text x="2.004" y="16.867" class="f">ls</text><text x="5.01" y="16.867" class="f">recording_</text></svg><svg x="4232"><use xlink:href="#a"/><use xlink:href="#b" x="15.996" y="15.172"/><use xlink:href="#3"/><use xlink:href="#4" y="2.171"/><use xlink:href="#5" y="4.342"/><use xlink:href="#6" y="6.513"/><use xlink:href="#7" y="8.684"/><use xlink:href="#8" y="10.855"/><use xlink:href="#9" y="13.026"/><text y="16.867" class="f">$</text><text x="2.004" y="16.867" class="f">ls</text><text x="5.01" y="16.867" class="f">recording_c</text></svg><svg x="4324"><use xlink:href="#a"/><use xlink:href="#b" x="16.996" y="15.172"/><use xlink:href="#3"/><use xlink:href="#4" y="2.171"/><use xlink:href="#5" y="4.342"/><use xlink:href="#6" y="6.513"/><use xlink:href="#7" y="8.684"/><use xlink:href="#8" y="10.855"/><use xlink:href="#9" y="13.026"/><text y="16.867" class="f">$</text><text x="2.004" y="16.867" class="f">ls</text><text x="5.01" y="16.867" class="f">recording_cl</text></svg><svg x="4416"><use xlink:href="#a"/><use xlink:href="#b" x="17.996" y="15.172"/><use xlink:href="#3"/><use xlink:href="#4" y="2.171"/><use xlink:href="#5" y="4.342"/><use xlink:href="#6" y="6.513"/><use xlink:href="#7" y="8.684"/><use xlink:href="#8" y="10.855"/><use xlink:href="#9" y="13.026"/><text y="16.867" class="f">$</text><text x="2.004" y="16.867" class="f">ls</text><text x="5.01" y="16.867" class="f">recording_cli</text></svg><svg x="4508"><use xlink:href="#a"/><use xlink:href="#b" x="18.996" y="15.172"/><use xlink:href="#3"/><use xlink:href="#4" y="2.171"/><use xlink:href="#5" y="4.342"/><use xlink:href="#6" y="6.513"/><use xlink:href="#7" y="8.684"/><use xlink:href="#8" y="10.855"/><use xlink:href="#9" y="13.026"/><text y="16.867" class="f">$</text><text x="2.004" y="16.867" class="f">ls</text><text x="5.01" y="16.867" class="f">recording_clip</text></svg><svg x="4600"><use xlink:href="#a"/><use xlink:href="#b" x="19.996" y="15.172"/><use xlink:href="#3"/><use xlink:href="#4" y="2.171"/><use xlink:href="#5" y="4.342"/><use xlink:href="#6" y="6.513"/><use xlink:href="#7" y="8.684"/><use xlink:href="#8" y="10.855"/><use xlink:href="#9" y="13.026"/><text y="16.867" class="f">$</text><text x="2.004" y="16.867" class="f">ls</text><text x="5.01" y="16.867" class="f">recording_clips</text></svg><svg x="4692"><use xlink:href="#a"/><use xlink:href="#b" x="20.996" y="15.172"/><use xlink:href="#3"/><use xlink:href="#4" y="2.171"/><use xlink:href="#5" y="4.342"/><use xlink:href="#6" y="6.513"/><use xlink:href="#7" y="8.684"/><use xlink:href="#8" y="10.855"/><use xlink:href="#9" y="13.026"/><use xlink:href="#11" y="15.197"/></svg><svg x="4784"><use xlink:href="#a"/><use xlink:href="#b" x="-.004" y="17.343"/><use xlink:href="#3"/><use xlink:href="#4" y="2.171"/><use xlink:href="#5" y="4.342"/><use xlink:href="#6" y="6.513"/><use xlink:href="#7" y="8.684"/><use xlink:href="#8" y="10.855"/><use xlink:href="#9" y="13.026"/><use xlink:href="#11" y="15.197"/></svg><svg x="4876"><use xlink:href="#a"/><use xlink:href="#b" x="-.004" y="19.514"/><use xlink:href="#3"/><use xlink:href="#4" y="2.171"/><use xlink:href="#5" y="4.342"/><use xlink:href="#6" y="6.513"/><use xlink:href="#7" y="8.684"/><use xlink:href="#8" y="10.855"/><use xlink:href="#9" y="13.026"/><use xlink:href="#11" y="15.197"/><use xlink:href="#12" y="17.368"/></svg><svg x="4968"><use xlink:href="#a"/><use xlink:href="#b" x="1.996" y="19.514"/><use xlink:href="#3"/><use xlink:href="#4" y="2.171"/><use xlink:href="#5" y="4.342"/><use xlink:href="#6" y="6.513"/><use xlink:href="#7" y="8.684"/><use xlink:href="#8" y="10.855"/><use xlink:href="#9" y="13.026"/><use xlink:href="#11" y="15.197"/><use xlink:href="#12" y="17.368"/><use xlink:href="#1" y="19.539"/></svg></svg></g></g></svg></svg>